<mxfile host="app.diagrams.net" modified="2021-08-29T10:18:53.536Z" agent="5.0 (Macintosh; Intel Mac OS X 10_15_7) AppleWebKit/605.1.15 (KHTML, like Gecko) Version/14.1.1 Safari/605.1.15" etag="cHOY7MBGp8sbps72R4S3" version="15.0.3" type="github">
  <diagram id="jX18XJ3T4TOSujDyHvxS" name="第 1 页">
    <mxGraphModel dx="946" dy="501" grid="1" gridSize="10" guides="1" tooltips="1" connect="1" arrows="1" fold="1" page="1" pageScale="1" pageWidth="827" pageHeight="1169" math="0" shadow="0">
      <root>
        <mxCell id="0" />
        <mxCell id="1" parent="0" />
        <mxCell id="FTA4VTz8hqje1e5fiqN9-37" value="1" style="edgeStyle=none;rounded=0;orthogonalLoop=1;jettySize=auto;html=1;fontSize=16;exitX=1;exitY=0.25;exitDx=0;exitDy=0;" edge="1" parent="1" source="FTA4VTz8hqje1e5fiqN9-4">
          <mxGeometry relative="1" as="geometry">
            <mxPoint x="159" y="274" as="targetPoint" />
          </mxGeometry>
        </mxCell>
        <mxCell id="FTA4VTz8hqje1e5fiqN9-4" value="" style="aspect=fixed;perimeter=ellipsePerimeter;html=1;align=center;shadow=0;dashed=0;spacingTop=3;image;image=img/lib/active_directory/laptop_client.svg;fontSize=16;" vertex="1" parent="1">
          <mxGeometry x="40" y="260" width="45" height="50" as="geometry" />
        </mxCell>
        <mxCell id="FTA4VTz8hqje1e5fiqN9-22" value="本地 DNS 服务器" style="text;html=1;align=center;verticalAlign=middle;resizable=0;points=[];autosize=1;strokeColor=none;fontSize=16;" vertex="1" parent="1">
          <mxGeometry x="130" y="230" width="140" height="20" as="geometry" />
        </mxCell>
        <mxCell id="FTA4VTz8hqje1e5fiqN9-27" value="4" style="edgeStyle=none;rounded=0;orthogonalLoop=1;jettySize=auto;html=1;entryX=0;entryY=0.25;entryDx=0;entryDy=0;fontSize=16;" edge="1" parent="1" source="FTA4VTz8hqje1e5fiqN9-10" target="FTA4VTz8hqje1e5fiqN9-26">
          <mxGeometry relative="1" as="geometry" />
        </mxCell>
        <mxCell id="FTA4VTz8hqje1e5fiqN9-30" value="6" style="edgeStyle=none;rounded=0;orthogonalLoop=1;jettySize=auto;html=1;fontSize=16;" edge="1" parent="1">
          <mxGeometry relative="1" as="geometry">
            <mxPoint x="192" y="310" as="sourcePoint" />
            <mxPoint x="340" y="420" as="targetPoint" />
          </mxGeometry>
        </mxCell>
        <mxCell id="FTA4VTz8hqje1e5fiqN9-35" value="9" style="edgeStyle=none;rounded=0;orthogonalLoop=1;jettySize=auto;html=1;entryX=0.25;entryY=0;entryDx=0;entryDy=0;fontSize=16;exitX=0.75;exitY=1;exitDx=0;exitDy=0;" edge="1" parent="1" source="FTA4VTz8hqje1e5fiqN9-4" target="FTA4VTz8hqje1e5fiqN9-32">
          <mxGeometry relative="1" as="geometry" />
        </mxCell>
        <mxCell id="FTA4VTz8hqje1e5fiqN9-38" value="8" style="edgeStyle=none;rounded=0;orthogonalLoop=1;jettySize=auto;html=1;entryX=1;entryY=0.75;entryDx=0;entryDy=0;fontSize=16;" edge="1" parent="1" target="FTA4VTz8hqje1e5fiqN9-4">
          <mxGeometry relative="1" as="geometry">
            <mxPoint x="159" y="296" as="sourcePoint" />
          </mxGeometry>
        </mxCell>
        <mxCell id="FTA4VTz8hqje1e5fiqN9-10" value="" style="aspect=fixed;perimeter=ellipsePerimeter;html=1;align=center;shadow=0;dashed=0;spacingTop=3;image;image=img/lib/active_directory/mainframe_host.svg;fontSize=16;" vertex="1" parent="1">
          <mxGeometry x="159" y="260" width="36" height="50" as="geometry" />
        </mxCell>
        <mxCell id="FTA4VTz8hqje1e5fiqN9-25" value="3" style="edgeStyle=none;rounded=0;orthogonalLoop=1;jettySize=auto;html=1;entryX=1;entryY=0.5;entryDx=0;entryDy=0;fontSize=16;" edge="1" parent="1" target="FTA4VTz8hqje1e5fiqN9-10">
          <mxGeometry relative="1" as="geometry">
            <mxPoint x="482" y="290" as="sourcePoint" />
          </mxGeometry>
        </mxCell>
        <mxCell id="FTA4VTz8hqje1e5fiqN9-14" value="&lt;span style=&quot;color: rgb(36 , 41 , 46) ; font-family: , &amp;#34;blinkmacsystemfont&amp;#34; , , &amp;#34;pingfang sc&amp;#34; , &amp;#34;helvetica&amp;#34; , &amp;#34;arial&amp;#34; , &amp;#34;hiragino sans gb&amp;#34; , &amp;#34;microsoft yahei&amp;#34; , &amp;#34;simsun&amp;#34; , , &amp;#34;heiti&amp;#34; , , sans-serif ; font-size: 14px ; text-align: left&quot;&gt;&amp;nbsp;&lt;/span&gt;&lt;a href=&quot;http://xiaolin.com/&quot; target=&quot;_blank&quot; style=&quot;box-sizing: border-box ; color: rgb(3 , 102 , 214) ; text-decoration: none ; font-family: , &amp;#34;blinkmacsystemfont&amp;#34; , , &amp;#34;pingfang sc&amp;#34; , &amp;#34;helvetica&amp;#34; , &amp;#34;arial&amp;#34; , &amp;#34;hiragino sans gb&amp;#34; , &amp;#34;microsoft yahei&amp;#34; , &amp;#34;simsun&amp;#34; , , &amp;#34;heiti&amp;#34; , , sans-serif ; font-size: 14px ; text-align: left&quot;&gt;xiaolin.com&lt;/a&gt;&lt;span style=&quot;color: rgb(36 , 41 , 46) ; font-family: , &amp;#34;blinkmacsystemfont&amp;#34; , , &amp;#34;pingfang sc&amp;#34; , &amp;#34;helvetica&amp;#34; , &amp;#34;arial&amp;#34; , &amp;#34;hiragino sans gb&amp;#34; , &amp;#34;microsoft yahei&amp;#34; , &amp;#34;simsun&amp;#34; , , &amp;#34;heiti&amp;#34; , , sans-serif ; font-size: 14px ; text-align: left&quot;&gt;&amp;nbsp;的 DNS&lt;/span&gt;" style="aspect=fixed;perimeter=ellipsePerimeter;html=1;align=center;shadow=0;dashed=0;spacingTop=3;image;image=img/lib/active_directory/mainframe_host.svg;fontSize=16;" vertex="1" parent="1">
          <mxGeometry x="480.00363636363636" y="250" width="36" height="50" as="geometry" />
        </mxCell>
        <mxCell id="FTA4VTz8hqje1e5fiqN9-20" value="2" style="edgeStyle=none;rounded=0;orthogonalLoop=1;jettySize=auto;html=1;fontSize=16;exitX=1;exitY=0.25;exitDx=0;exitDy=0;" edge="1" parent="1" source="FTA4VTz8hqje1e5fiqN9-10">
          <mxGeometry x="159" y="257.22" as="geometry">
            <mxPoint x="480" y="260" as="targetPoint" />
          </mxGeometry>
        </mxCell>
        <mxCell id="FTA4VTz8hqje1e5fiqN9-28" value="5" style="edgeStyle=none;rounded=0;orthogonalLoop=1;jettySize=auto;html=1;fontSize=16;" edge="1" parent="1">
          <mxGeometry relative="1" as="geometry">
            <mxPoint x="380" y="360" as="sourcePoint" />
            <mxPoint x="190" y="300" as="targetPoint" />
          </mxGeometry>
        </mxCell>
        <mxCell id="FTA4VTz8hqje1e5fiqN9-26" value="&lt;div style=&quot;text-align: left&quot;&gt;&lt;font color=&quot;#24292e&quot;&gt;&lt;span style=&quot;font-size: 14px&quot;&gt;CDN 专用 DNS&lt;/span&gt;&lt;/font&gt;&lt;/div&gt;" style="aspect=fixed;perimeter=ellipsePerimeter;html=1;align=center;shadow=0;dashed=0;spacingTop=3;image;image=img/lib/active_directory/mainframe_host.svg;fontSize=16;" vertex="1" parent="1">
          <mxGeometry x="380.00363636363636" y="330" width="36" height="50" as="geometry" />
        </mxCell>
        <mxCell id="FTA4VTz8hqje1e5fiqN9-31" value="7" style="edgeStyle=none;rounded=0;orthogonalLoop=1;jettySize=auto;html=1;fontSize=16;" edge="1" parent="1">
          <mxGeometry relative="1" as="geometry">
            <mxPoint x="332" y="445" as="sourcePoint" />
            <mxPoint x="180" y="310" as="targetPoint" />
          </mxGeometry>
        </mxCell>
        <mxCell id="FTA4VTz8hqje1e5fiqN9-29" value="&lt;div style=&quot;text-align: left&quot;&gt;&lt;font color=&quot;#24292e&quot;&gt;&lt;span style=&quot;font-size: 14px&quot;&gt;GSLB&lt;/span&gt;&lt;/font&gt;&lt;/div&gt;" style="aspect=fixed;perimeter=ellipsePerimeter;html=1;align=center;shadow=0;dashed=0;spacingTop=3;image;image=img/lib/active_directory/mainframe_host.svg;fontSize=16;" vertex="1" parent="1">
          <mxGeometry x="330.00363636363636" y="420" width="36" height="50" as="geometry" />
        </mxCell>
        <mxCell id="FTA4VTz8hqje1e5fiqN9-32" value="&lt;div style=&quot;text-align: left&quot;&gt;&lt;font color=&quot;#24292e&quot;&gt;&lt;span style=&quot;font-size: 14px&quot;&gt;CDN 节点&lt;/span&gt;&lt;/font&gt;&lt;/div&gt;" style="aspect=fixed;perimeter=ellipsePerimeter;html=1;align=center;shadow=0;dashed=0;spacingTop=3;image;image=img/lib/active_directory/mainframe_host.svg;fontSize=16;" vertex="1" parent="1">
          <mxGeometry x="250.00363636363636" y="490" width="36" height="50" as="geometry" />
        </mxCell>
        <mxCell id="FTA4VTz8hqje1e5fiqN9-33" value="&lt;div style=&quot;text-align: left&quot;&gt;&lt;font color=&quot;#24292e&quot;&gt;&lt;span style=&quot;font-size: 14px&quot;&gt;CDN 节点&lt;/span&gt;&lt;/font&gt;&lt;/div&gt;" style="aspect=fixed;perimeter=ellipsePerimeter;html=1;align=center;shadow=0;dashed=0;spacingTop=3;image;image=img/lib/active_directory/mainframe_host.svg;fontSize=16;" vertex="1" parent="1">
          <mxGeometry x="400.00363636363636" y="490" width="36" height="50" as="geometry" />
        </mxCell>
        <mxCell id="FTA4VTz8hqje1e5fiqN9-34" value="&lt;div style=&quot;text-align: left&quot;&gt;&lt;font color=&quot;#24292e&quot;&gt;&lt;span style=&quot;font-size: 14px&quot;&gt;CDN 节点&lt;/span&gt;&lt;/font&gt;&lt;/div&gt;" style="aspect=fixed;perimeter=ellipsePerimeter;html=1;align=center;shadow=0;dashed=0;spacingTop=3;image;image=img/lib/active_directory/mainframe_host.svg;fontSize=16;" vertex="1" parent="1">
          <mxGeometry x="500.00363636363636" y="490" width="36" height="50" as="geometry" />
        </mxCell>
      </root>
    </mxGraphModel>
  </diagram>
</mxfile>
